<svg width="16" height="14" viewBox="0 0 16 14" fill="none" xmlns="http://www.w3.org/2000/svg">
<path d="M11.4693 9.58894L14.863 7.62927C15.0428 7.52543 15.154 7.33245 15.154 7.12478V3.20592C15.154 2.99874 15.0423 2.80527 14.863 2.70143L11.4693 0.741756C11.2895 0.63792 11.0666 0.63841 10.8869 0.741756L7.49309 2.70143C7.31333 2.80527 7.20215 2.99874 7.20215 3.20592V10.2095L4.82223 11.5834L2.44231 10.2095V7.46127L4.82223 6.08739L6.39203 6.99351V5.14992L5.11317 4.4118C5.02501 4.36086 4.92411 4.33392 4.82174 4.33392C4.71938 4.33392 4.61848 4.36086 4.5308 4.4118L1.13701 6.37147C0.957253 6.47531 0.846069 6.66829 0.846069 6.87596V10.7948C0.846069 11.002 0.957743 11.1955 1.13701 11.2993L4.5308 13.259C4.71007 13.3623 4.93342 13.3623 5.11317 13.259L8.50697 11.2998C8.68672 11.196 8.79791 11.0025 8.79791 10.7953V3.79172L8.84101 3.76723L11.1778 2.41784L13.5577 3.79172V6.53996L11.1778 7.91384L9.61048 7.0087V8.85229L10.8869 9.58943C11.0666 9.69278 11.2895 9.69278 11.4693 9.58943V9.58894Z" fill="url(#paint0_linear_2253_1326)"/>
<defs>
<linearGradient id="paint0_linear_2253_1326" x1="2.06174" y1="11.3302" x2="14.3595" y2="2.36298" gradientUnits="userSpaceOnUse">
<stop stop-color="#A726C1"/>
<stop offset="0.88" stop-color="#803BDF"/>
<stop offset="1" stop-color="#7B3FE4"/>
</linearGradient>
</defs>
</svg>
