<svg width="225" height="32" viewBox="0 0 225 32" fill="none" xmlns="http://www.w3.org/2000/svg">
<g clip-path="url(#clip0_2253_1278)">
<path d="M41.2422 24.6969V7.73047H47.7201C49.4476 7.73047 50.9591 8.16 52.2547 9.23383C53.5502 10.3077 53.9821 11.5962 53.9821 13.0996C53.9821 14.8177 53.3343 16.1063 52.2547 16.9654C51.175 17.8244 49.4476 18.6835 47.5042 18.6835H44.4812V24.6969H41.2422ZM44.6971 15.6768H47.5042C48.3679 15.6768 49.0157 15.462 49.4476 15.0325C49.8794 14.603 50.0954 13.9587 50.0954 13.3144C50.0954 12.6701 49.8794 12.0258 49.4476 11.5962C49.0157 10.9519 48.3679 10.7372 47.5042 10.7372H44.4812V15.6768H44.6971Z" fill="#121212"/>
<path d="M60.6758 16.321C60.6758 13.9586 61.5395 11.8109 63.267 10.0928C64.9944 8.37468 67.1537 7.51562 69.7449 7.51562C72.1201 7.51562 74.2794 8.37468 76.2228 10.0928C77.9503 11.8109 79.0299 13.9586 78.814 16.321C78.814 18.6834 77.9503 20.8311 76.2228 22.5492C74.4954 24.2673 72.3361 25.1264 69.7449 25.1264C67.3696 25.1264 65.2103 24.2673 63.267 22.5492C61.3236 20.8311 60.6758 18.6834 60.6758 16.321ZM75.3591 16.321C75.3591 14.6029 74.9272 13.3143 73.8476 12.2405C72.7679 11.1666 71.4723 10.7371 69.7449 10.7371C68.2334 10.7371 66.9378 11.1666 65.8581 12.2405C64.7785 13.3143 64.3466 14.6029 64.3466 16.321C64.3466 18.0391 64.7785 19.3277 65.8581 20.4015C66.9378 21.4754 68.2334 21.9049 69.7449 21.9049C71.2564 21.9049 72.552 21.4754 73.6316 20.4015C74.7113 19.1129 75.3591 17.8243 75.3591 16.321Z" fill="#121212"/>
<path d="M87.0176 24.6969V7.73047H90.4725V21.6902H98.03V24.9117H87.0176V24.6969Z" fill="#121212"/>
<path d="M117.033 7.73047L111.203 18.0392V24.6969H107.748V18.0392L101.918 7.73047H105.805L109.691 14.3882L113.362 7.73047H117.033Z" fill="#121212"/>
<g opacity="0.6">
<path d="M128.478 24.6969L131.285 8.80429H125.023L125.239 7.73047H139.059L138.843 9.01906H132.581L129.774 24.9117H128.478V24.6969Z" fill="#121212"/>
<path d="M152.879 16.9654L157.414 24.697H155.902L151.368 17.1802H147.265L145.969 24.9118H144.674L147.697 7.94531H152.879C154.391 7.94531 155.686 8.37484 156.55 9.01914C157.414 9.8782 157.845 10.7373 157.845 12.2406C157.845 13.5292 157.414 14.8178 156.55 15.6769C155.686 16.5359 154.391 16.9654 152.879 16.9654ZM148.56 9.01914L147.265 16.1064H151.799C153.095 16.1064 154.175 15.6769 155.038 15.0326C155.902 14.3883 156.118 13.3144 156.118 12.2406C156.118 11.1668 155.902 10.5225 155.254 9.8782C154.607 9.2339 153.743 9.01914 152.447 9.01914H148.56Z" fill="#121212"/>
<path d="M177.927 24.6968L177.063 20.6163H168.21L165.835 24.6968H164.107L174.472 7.51562H174.904L179.223 24.6968H177.927ZM176.847 19.5425L174.472 9.87804L168.858 19.5425H176.847Z" fill="#121212"/>
<path d="M188.074 24.6969L191.097 7.73047H195.2C197.791 7.73047 199.734 8.37476 201.462 9.87812C202.973 11.3815 203.837 13.0996 203.837 15.462C203.837 18.0392 202.973 20.4016 201.03 22.1197C199.087 23.8379 196.711 24.6969 193.688 24.6969H188.074ZM189.586 23.6231H193.472C196.064 23.6231 198.223 22.9788 199.734 21.4754C201.462 19.9721 202.11 18.0392 202.11 15.6768C202.11 13.7439 201.462 12.0258 200.166 10.7372C198.871 9.44859 197.143 8.80429 194.768 8.80429H192.177L189.586 23.6231Z" fill="#121212"/>
<path d="M211.396 24.6969L214.42 7.73047H225.216L225 9.01906H215.715L214.42 15.0325H221.761L221.545 16.3211H214.204L212.908 23.6231H222.625L222.409 24.9117H211.396V24.6969Z" fill="#121212"/>
</g>
<path d="M14.6833 12.2407L26.5595 19.1131C27.2073 19.5427 28.071 19.1131 28.071 18.2541V8.58965C28.071 8.16012 27.8551 7.94535 27.4232 7.73059L14.4674 0.213808C14.2514 -0.0009569 13.8196 -0.0009569 13.6036 0.213808L0.647793 7.73059C0.215931 7.73059 0 8.16012 0 8.58965V12.0259L13.6036 4.29435C14.0355 4.07958 14.2514 4.07958 14.6833 4.29435L24.1843 9.66347C24.6161 9.87824 24.8321 10.3078 24.8321 10.5225V13.9588L14.6833 8.16012C14.2514 7.94535 14.0355 7.94535 13.6036 8.16012L0.647793 15.6769C0.215931 15.8917 0 16.3212 0 16.536V23.4084C0 23.838 0.215931 24.0527 0.431862 24.2675L3.4549 25.9856V18.6836C3.4549 18.2541 3.67083 18.0393 4.10269 17.8245L13.6036 12.4554C13.8196 12.0259 14.2514 12.0259 14.6833 12.2407Z" fill="#121212"/>
<path d="M14.6845 27.704C14.2527 27.9188 14.0367 27.9188 13.6049 27.704L7.12695 24.053V27.4893C7.12695 27.9188 7.34288 28.1336 7.55882 28.3483L13.6049 31.7846C14.0367 31.9993 14.2527 31.9993 14.6845 31.7846L28.2882 24.053L25.2651 22.3349C24.8333 22.1201 24.6174 22.1201 24.1855 22.3349L14.6845 27.704Z" fill="#121212"/>
<path d="M14.6829 23.838L20.2971 20.6165C20.729 20.4018 20.729 19.9722 20.2971 19.7575L14.6829 16.3212C14.251 16.1065 14.0351 16.1065 13.6032 16.3212L7.77312 19.5427C7.34125 19.7575 7.34125 20.187 7.77312 20.4018L13.3873 23.6232C13.8192 24.0528 14.251 24.0528 14.6829 23.838Z" fill="#121212"/>
</g>
<defs>
<clipPath id="clip0_2253_1278">
<rect width="225" height="32" fill="white"/>
</clipPath>
</defs>
</svg>
